HIERARCHY
ROOT Hips
{
	OFFSET 0.000000 0.000000 0.000000
	CHANNELS 6 Xposition Yposition Zposition Zrotation Yrotation Xrotation 
	JOINT LHipJoint
	{
		OFFSET 0.000000 0.000000 0.000000
		CHANNELS 3 Zrotation Yrotation Xrotation
		JOINT LeftUpLeg
		{
			OFFSET 1.363060 -1.794630 0.839290
			CHANNELS 3 Zrotation Yrotation Xrotation
			JOINT LeftLeg
			{
				OFFSET 2.448110 -6.726130 0.000000
				CHANNELS 3 Zrotation Yrotation Xrotation
				JOINT LeftFoot
				{
					OFFSET 2.562200 -7.039590 0.000000
					CHANNELS 3 Zrotation Yrotation Xrotation
					JOINT LeftToeBase
					{
						OFFSET 0.157640 -0.433110 2.322550
						CHANNELS 3 Zrotation Yrotation Xrotation
						End Site
						{
							OFFSET 0.000000 0.000000 0.000000
						}
					}
				}
			}
		}
	}
	JOINT RHipJoint
	{
		OFFSET 0.000000 0.000000 0.000000
		CHANNELS 3 Zrotation Yrotation Xrotation
		JOINT RightUpLeg
		{
			OFFSET -1.305520 -1.794630 0.839290
			CHANNELS 3 Zrotation Yrotation Xrotation
			JOINT RightLeg
			{
				OFFSET -2.542530 -6.985550 0.000000
				CHANNELS 3 Zrotation Yrotation Xrotation
				JOINT RightFoot
				{
					OFFSET -2.568260 -7.056230 0.000000
					CHANNELS 3 Zrotation Yrotation Xrotation
					JOINT RightToeBase
					{
						OFFSET -0.164730 -0.452590 2.363150
						CHANNELS 3 Zrotation Yrotation Xrotation
						End Site
						{
							OFFSET 0.000000 0.000000 0.000000
						}
					}
				}
			}
		}
	}
}
MOTION
Frames: 19
Frame Time: 0.008333
9.182433 15.952031 1.697252 -30.686483 -87.775255 52.414802 -12.722275 5.588862 0.776156 0.720954 7.357607 7.828932 -0.411291 0.978511 11.792569 0.806629 1.330407 20.022841 0.263600 0.000000 -92.460100 7.171010 -0.733841 6.471511 7.913047 9.147610 -60.582687 3.116367 -1.037634 21.691914 -0.327183 -1.512967 1.196799 -1.182800 0.000000 -47.895300
8.847471 15.942932 1.680711 -42.818963 -87.678087 64.540188 -13.142163 5.530569 0.897419 1.353514 7.154172 7.055039 -0.045703 1.079710 14.323740 1.076855 2.440855 22.407835 0.686000 0.000000 -88.716900 6.772435 -1.000457 6.425909 8.625810 10.234107 -60.898764 2.781969 -1.459595 25.178599 -0.513677 -2.419224 1.552488 -1.395601 0.000000 -44.515100
8.518360 15.940925 1.661608 -52.062898 -87.450538 73.738021 -13.472134 5.385882 0.991808 1.871690 6.948736 6.107056 0.284731 1.138931 17.206458 1.341064 3.600454 24.346760 1.200400 -0.000000 -83.166700 6.457262 -1.239030 6.355881 9.363105 11.102166 -61.017503 2.486897 -1.821747 28.337352 -0.664173 -3.072668 1.608278 -1.521600 -0.000000 -41.157301
8.196027 15.946908 1.640423 -59.163602 -87.161748 80.761563 -13.729810 5.181612 1.049833 2.289441 6.816915 4.944720 0.556829 1.171466 20.430660 1.585846 4.796503 25.684366 1.778199 0.000000 -76.171800 6.214858 -1.443421 6.265772 10.128444 11.772779 -60.913823 2.252058 -2.118702 31.104602 -0.780042 -3.487029 1.303593 -1.555101 0.000000 -38.124600
7.880989 15.961588 1.616951 -64.648896 -86.860702 86.148429 -13.923918 4.940902 1.070010 2.593562 6.782919 3.552016 0.761010 1.194786 23.939920 1.802834 6.054395 26.347853 2.403300 0.000001 -68.360000 6.038250 -1.614994 6.160091 10.902661 12.248378 -60.588755 2.085208 -2.354817 33.462546 -0.863624 -3.677086 0.616184 -1.497900 0.000000 -35.590101
7.573517 15.985517 1.590704 -68.935368 -86.589726 90.319228 -14.055692 4.684603 1.056155 2.751986 6.832284 1.942719 0.900828 1.225611 27.640025 1.991464 7.416424 26.354971 3.069599 0.000000 -60.514200 5.925724 -1.754712 6.039443 11.654262 12.520868 -60.048814 1.985127 -2.536949 35.415694 -0.917711 -3.659110 -0.435325 -1.360601 0.000000 -33.602900
7.273460 16.019106 1.562121 -72.403235 -86.356614 93.655055 -14.134976 4.424278 1.011273 2.773433 6.955208 0.144887 0.990486 1.275332 31.428205 2.156189 8.889714 25.778713 3.753000 0.000000 -53.350100 5.865081 -1.871645 5.906644 12.376708 12.610113 -59.280115 1.949585 -2.668472 36.946426 -0.949163 -3.475662 -1.780795 -1.168100 -0.000000 -32.145900
6.980155 16.062580 1.531328 -75.288888 -86.170187 96.394292 -14.166560 4.168649 0.941263 2.654531 7.127692 -1.804595 1.045541 1.349116 35.203533 2.303811 10.468570 24.706167 4.424200 0.000000 -47.288200 5.849662 -1.970312 5.763633 13.052420 12.533505 -58.275483 1.971557 -2.751523 38.043961 -0.963799 -3.167170 -3.321343 -0.947400 0.000000 -31.164599
6.692845 16.115990 1.498634 -77.762281 -86.029832 98.706603 -14.156557 3.921947 0.851271 2.404645 7.332393 -3.869114 1.079497 1.447041 38.879191 2.439338 12.115878 23.200522 5.036500 0.000000 -42.333800 5.871420 -2.055059 5.614123 13.667700 12.319287 -57.028102 2.041908 -2.786348 38.694908 -0.967723 -2.781331 -4.937857 -0.725500 -0.000000 -30.589600
6.410478 16.179031 1.464539 -79.921902 -85.923480 100.694326 -14.114290 3.683172 0.748646 2.047538 7.549624 -6.017555 1.103295 1.563782 42.371876 2.568628 13.785928 21.349070 5.546200 -0.000001 -38.642500 5.918230 -2.131552 5.465366 14.218043 12.011121 -55.538031 2.150817 -2.771805 38.882744 -0.967784 -2.374715 -6.507235 -0.524900 0.000000 -30.334100
6.135146 16.249961 1.417931 -92.138709 -85.855790 112.588042 -13.758175 3.462635 0.377576 1.129836 8.490646 -7.701807 1.098650 1.678136 45.229403 2.687487 15.561130 19.297517 6.005900 0.000001 -35.661600 6.222772 -2.107690 5.417445 14.172674 12.265737 -53.746830 2.197713 -2.736470 38.794985 -0.953869 -1.928243 -7.910948 -0.345200 -0.000000 -30.389300
5.859267 16.330317 1.381805 -94.005215 -85.761326 114.277445 -13.664347 3.250388 0.263989 0.621342 8.700604 -9.950811 1.107355 1.815961 48.185736 2.804302 17.052533 16.851421 6.139700 0.000000 -33.365400 6.306820 -2.159806 5.289429 14.569916 11.900629 -51.807766 2.348011 -2.623282 38.076380 -0.957554 -1.619546 -9.099942 -0.220100 0.000000 -30.438800
5.585188 16.417533 1.345078 -95.615643 -85.682467 115.720125 -13.555712 3.040858 0.159076 0.064362 8.854441 -12.210155 1.110707 1.952412 50.794400 2.913233 18.370063 14.222095 6.052000 -0.000000 -31.478500 6.390345 -2.208681 5.180908 14.886423 11.562875 -49.685644 2.502003 -2.462194 36.929280 -0.970230 -1.420199 -10.012176 -0.131000 0.000000 -30.443100
5.312091 16.510119 1.307874 -96.918545 -85.618378 116.872096 -13.435610 2.831393 0.071228 -0.524440 8.923887 -14.462131 1.106621 2.080140 53.026858 3.012235 19.467826 11.505679 5.752100 -0.000000 -29.951300 6.468142 -2.254030 5.096146 15.121864 11.282676 -47.411196 2.650674 -2.256087 35.387109 -0.994310 -1.355050 -10.632456 -0.072900 0.000000 -30.310600
5.039313 16.606452 1.270092 -97.874538 -85.575004 117.701998 -13.303717 2.620765 0.006991 -1.137401 8.882349 -16.694644 1.092490 2.193655 54.871909 3.098254 20.315856 8.796402 5.272900 0.000001 -28.666799 6.540259 -2.292836 5.035216 15.274075 11.074074 -45.021284 2.786645 -2.009730 33.498465 -1.030372 -1.430856 -10.975830 -0.040100 -0.000001 -29.981000
4.766485 16.704807 1.231686 -98.443961 -85.558951 118.171745 -13.160657 2.408479 -0.028059 -1.764626 8.712675 -18.896642 1.066972 2.288955 56.333007 3.168354 20.902209 6.188283 4.667401 0.000000 -27.510601 6.607183 -2.323358 4.996766 15.346001 10.940988 -42.545842 2.904868 -1.728597 31.315180 -1.078340 -1.644013 -11.074973 -0.029100 -0.000000 -29.463500
4.493481 16.803394 1.192453 -98.616082 -85.582300 118.270520 -13.003995 2.195563 -0.030712 -2.407136 8.401904 -21.059694 1.030114 2.363662 57.422731 3.221516 21.241758 3.774813 4.004400 0.000000 -26.456601 6.674651 -2.341881 4.974306 15.336887 10.867636 -40.017099 3.001672 -1.419823 28.900263 -1.135723 -1.972608 -10.977823 -0.036800 -0.000000 -28.798200
4.220291 16.900453 1.152224 -98.385367 -85.656312 117.986754 -12.832111 1.984493 0.000166 -3.065946 7.949761 -23.172608 0.983040 2.416908 58.160120 3.257874 21.364018 1.622979 3.347400 -0.000000 -25.442200 6.748985 -2.346608 4.959293 15.249927 10.826687 -37.457379 3.075150 -1.091256 26.317922 -1.198642 -2.385008 -10.736812 -0.060900 -0.000000 -28.053800
3.947233 16.994361 1.110909 -97.752410 -85.790200 117.310121 -12.643461 1.778032 0.062174 -3.744071 7.365718 -25.221857 0.927065 2.449262 58.565503 3.278977 21.308604 -0.232224 2.744100 0.000000 -24.395000 6.837040 -2.336576 4.939965 15.090348 10.781254 -34.883259 3.124832 -0.751727 23.632355 -1.261618 -2.841722 -10.401753 -0.098301 0.000000 -27.302700
